<?xml version="1.0" encoding="utf-8"?>
<!-- Generator: Adobe Illustrator 25.1.0, SVG Export Plug-In . SVG Version: 6.00 Build 0)  -->
<svg version="1.1" id="Layer_1" xmlns="http://www.w3.org/2000/svg" xmlns:xlink="http://www.w3.org/1999/xlink" x="0px" y="0px"
	 viewBox="0 0 169 83" style="enable-background:new 0 0 169 83;" xml:space="preserve">
<style type="text/css">
	.st0{fill:#A5C715;}
	.st1{fill:#0C0907;}
	.st2{fill:none;stroke:#0C0907;stroke-width:0.4161;}
	.st3{fill:#FFFFFF;}
	.st4{opacity:0.4;clip-path:url(#SVGID_2_);fill:#FFFFFF;}
	.st5{opacity:0.4;clip-path:url(#SVGID_4_);fill:#FFFFFF;}
	.st6{opacity:0.4;clip-path:url(#SVGID_6_);fill:#FFFFFF;}
	.st7{opacity:0.4;clip-path:url(#SVGID_8_);fill:#FFFFFF;}
	.st8{opacity:0.4;clip-path:url(#SVGID_10_);fill:#FFFFFF;}
</style>
<g>
	<g>
		<path class="st0" d="M125,82.3c-2.1,0-3.8-1.7-3.8-3.8v-4.2c0-0.5-0.5-1-1.1-1.1H4.4c-2.1,0-3.8-1.7-3.8-3.8v-65
			c0-2.1,1.7-3.8,3.8-3.8h160.1c2.1,0,3.8,1.7,3.8,3.8v65c0,1.7,0,9.1,0,9.1c0,2.1-1.7,3.8-3.8,3.8H125z"/>
		<path class="st1" d="M164.6,1.4c1.7,0,3.1,1.4,3.1,3.1v65c0,1.7,0,9.1,0,9.1c0,1.7-1.4,3.1-3.1,3.1H125c-1.7,0-3.1-1.4-3.1-3.1
			v-4.2c0-0.9-0.8-1.6-1.7-1.8H4.4c-1.7,0-3.1-1.4-3.1-3.1v-65c0-1.7,1.4-3.1,3.1-3.1H164.6 M164.6,0H4.4C2,0,0,2,0,4.5v65
			c0,2.5,2,4.5,4.4,4.5H120c0.3,0.1,0.5,0.3,0.5,0.4v4.2c0,2.5,2,4.5,4.4,4.5h39.5c2.5,0,4.4-2,4.4-4.5c0-0.1,0-7.4,0-9.1v-65
			C169,2,167,0,164.6,0"/>
		<path class="st1" d="M129.9,72.8h0.7l1,2.7l1-2.7h0.7l-1.4,3.5h-0.5L129.9,72.8z"/>
		<path class="st1" d="M133.6,72.8h2.3v0.6h-1.7v0.9h1.6v0.6h-1.6v1h1.8v0.6h-2.4V72.8z"/>
		<path class="st1" d="M136.7,72.8h1.2c0.7,0,1.3,0.2,1.3,1c0,0.5-0.3,0.9-0.8,1l0.9,1.6h-0.8l-0.8-1.5h-0.5v1.5h-0.6V72.8z
			 M137.8,74.3c0.4,0,0.8,0,0.8-0.5c0-0.4-0.4-0.5-0.7-0.5h-0.5v1H137.8z"/>
		<path class="st1" d="M140.6,74.8l-1.3-2h0.8l0.9,1.4l0.9-1.4h0.7l-1.3,2v1.5h-0.6V74.8z"/>
		<path class="st1" d="M147.6,76c-0.4,0.2-0.9,0.4-1.5,0.4c-1.1,0-1.9-0.7-1.9-1.8c0-1.1,0.8-1.9,1.9-1.9c0.5,0,1,0.1,1.4,0.4
			l-0.5,0.5c-0.2-0.2-0.6-0.3-0.9-0.3c-0.7,0-1.2,0.6-1.2,1.3c0,0.8,0.5,1.3,1.2,1.3c0.3,0,0.6-0.1,0.8-0.2v-0.8h-0.7v-0.6h1.4V76z"
			/>
		<path class="st1" d="M150,72.7c1.1,0,1.9,0.7,1.9,1.9c0,1.1-0.8,1.8-1.9,1.9c-1.1,0-1.9-0.7-1.9-1.8
			C148.2,73.4,148.9,72.7,150,72.7z M150,75.8c0.7,0,1.2-0.6,1.2-1.3c0-0.7-0.5-1.3-1.2-1.3c-0.7,0-1.2,0.6-1.2,1.3
			C148.8,75.3,149.3,75.8,150,75.8z"/>
		<path class="st1" d="M154.2,72.7c1.1,0,1.9,0.7,1.9,1.9c0,1.1-0.8,1.8-1.9,1.9c-1.1,0-1.9-0.7-1.9-1.8
			C152.3,73.4,153.1,72.7,154.2,72.7z M154.2,75.8c0.7,0,1.2-0.6,1.2-1.3c0-0.7-0.5-1.3-1.2-1.3c-0.7,0-1.2,0.6-1.2,1.3
			C153,75.3,153.5,75.8,154.2,75.8z"/>
		<path class="st1" d="M156.7,72.8h1.4c0.9,0,1.8,0.6,1.8,1.8c0,1.2-1,1.8-1.9,1.8h-1.3V72.8z M157.8,75.7c0.8,0,1.4-0.3,1.4-1.2
			c0-0.9-0.6-1.2-1.3-1.2h-0.6v2.4H157.8z"/>
		<polygon class="st1" points="11.1,9.1 17,9.1 17,10.1 12.3,10.1 12.3,13.1 16.7,13.1 16.7,14.1 12.3,14.1 12.3,18.2 11.1,18.2 		
			"/>
		<polygon class="st2" points="11.1,9.1 17,9.1 17,10.1 12.3,10.1 12.3,13.1 16.7,13.1 16.7,14.1 12.3,14.1 12.3,18.2 11.1,18.2 		
			"/>
		<path class="st1" d="M18.1,13.6c0-2.8,2.1-4.8,5-4.8c2.9,0,5,2.1,5,4.8s-2.1,4.8-5,4.8C20.2,18.5,18.1,16.4,18.1,13.6 M26.8,13.6
			c0-2.1-1.5-3.8-3.8-3.8s-3.8,1.7-3.8,3.8c0,2.1,1.5,3.8,3.8,3.8S26.8,15.8,26.8,13.6"/>
		<path class="st2" d="M18.1,13.6c0-2.8,2.1-4.8,5-4.8c2.9,0,5,2.1,5,4.8s-2.1,4.8-5,4.8C20.2,18.5,18.1,16.4,18.1,13.6z M26.8,13.6
			c0-2.1-1.5-3.8-3.8-3.8s-3.8,1.7-3.8,3.8c0,2.1,1.5,3.8,3.8,3.8S26.8,15.8,26.8,13.6z"/>
		<path class="st1" d="M29.4,13.6c0-2.8,2.1-4.8,5-4.8c2.9,0,5,2.1,5,4.8s-2.1,4.8-5,4.8C31.5,18.5,29.4,16.4,29.4,13.6 M38.1,13.6
			c0-2.1-1.5-3.8-3.8-3.8c-2.2,0-3.8,1.7-3.8,3.8c0,2.1,1.5,3.8,3.8,3.8C36.6,17.5,38.1,15.8,38.1,13.6"/>
		<path class="st2" d="M29.4,13.6c0-2.8,2.1-4.8,5-4.8c2.9,0,5,2.1,5,4.8s-2.1,4.8-5,4.8C31.5,18.5,29.4,16.4,29.4,13.6z M38.1,13.6
			c0-2.1-1.5-3.8-3.8-3.8c-2.2,0-3.8,1.7-3.8,3.8c0,2.1,1.5,3.8,3.8,3.8C36.6,17.5,38.1,15.8,38.1,13.6z"/>
		<path class="st1" d="M40.8,9.1h3.7c1.9,0,4.7,1.2,4.7,4.6c0,3.4-2.8,4.6-4.7,4.6h-3.7V9.1z M42,17.2h2.1c2.2,0,3.8-1.1,3.8-3.6
			c0-2.5-1.6-3.6-3.8-3.6H42V17.2z"/>
		<path class="st2" d="M40.8,9.1h3.7c1.9,0,4.7,1.2,4.7,4.6c0,3.4-2.8,4.6-4.7,4.6h-3.7V9.1z M42,17.2h2.1c2.2,0,3.8-1.1,3.8-3.6
			c0-2.5-1.6-3.6-3.8-3.6H42V17.2z"/>
		<polygon class="st1" points="54.2,9.1 55.4,9.1 55.4,12.9 60.4,12.9 60.4,9.1 61.6,9.1 61.6,18.2 60.4,18.2 60.4,14 55.4,14 
			55.4,18.2 54.2,18.2 		"/>
		<polygon class="st2" points="54.2,9.1 55.4,9.1 55.4,12.9 60.4,12.9 60.4,9.1 61.6,9.1 61.6,18.2 60.4,18.2 60.4,14 55.4,14 
			55.4,18.2 54.2,18.2 		"/>
		<polygon class="st1" points="66.4,14.3 62.9,9.1 64.3,9.1 67,13.2 69.7,9.1 71.1,9.1 67.5,14.3 67.5,18.2 66.4,18.2 		"/>
		<polygon class="st2" points="66.4,14.3 62.9,9.1 64.3,9.1 67,13.2 69.7,9.1 71.1,9.1 67.5,14.3 67.5,18.2 66.4,18.2 		"/>
		<path class="st1" d="M79.4,17.6c-1.1,0.6-2.3,0.9-3.6,0.9c-3,0-5.1-1.9-5.1-4.8c0-2.9,2.3-4.8,5.1-4.8c1.2,0,2.5,0.3,3.4,1.2
			l-0.8,0.9c-0.6-0.7-1.6-1.1-2.6-1.1c-2.2,0-3.8,1.6-3.8,3.8c0,2.2,1.6,3.8,3.9,3.8c0.8,0,1.7-0.2,2.4-0.5v-2.8H76v-1h3.3V17.6z"/>
		<path class="st2" d="M79.4,17.6c-1.1,0.6-2.3,0.9-3.6,0.9c-3,0-5.1-1.9-5.1-4.8c0-2.9,2.3-4.8,5.1-4.8c1.2,0,2.5,0.3,3.4,1.2
			l-0.8,0.9c-0.6-0.7-1.6-1.1-2.6-1.1c-2.2,0-3.8,1.6-3.8,3.8c0,2.2,1.6,3.8,3.9,3.8c0.8,0,1.7-0.2,2.4-0.5v-2.8H76v-1h3.3V17.6z"/>
		<polygon class="st1" points="84.6,9.1 90.5,9.1 90.5,10.1 85.7,10.1 85.7,12.9 90.2,12.9 90.2,14 85.7,14 85.7,17.2 90.8,17.2 
			90.8,18.2 84.6,18.2 		"/>
		<polygon class="st2" points="84.6,9.1 90.5,9.1 90.5,10.1 85.7,10.1 85.7,12.9 90.2,12.9 90.2,14 85.7,14 85.7,17.2 90.8,17.2 
			90.8,18.2 84.6,18.2 		"/>
		<polygon class="st1" points="92.3,9.1 93.8,9.1 99.3,16.7 99.3,16.7 99.3,9.1 100.4,9.1 100.4,18.2 99,18.2 93.5,10.6 93.5,10.6 
			93.5,18.2 92.3,18.2 		"/>
		<polygon class="st2" points="92.3,9.1 93.8,9.1 99.3,16.7 99.3,16.7 99.3,9.1 100.4,9.1 100.4,18.2 99,18.2 93.5,10.6 93.5,10.6 
			93.5,18.2 92.3,18.2 		"/>
		<polygon class="st1" points="102.2,9.1 108.2,9.1 108.2,10.1 103.4,10.1 103.4,12.9 107.9,12.9 107.9,14 103.4,14 103.4,17.2 
			108.4,17.2 108.4,18.2 102.2,18.2 		"/>
		<polygon class="st2" points="102.2,9.1 108.2,9.1 108.2,10.1 103.4,10.1 103.4,12.9 107.9,12.9 107.9,14 103.4,14 103.4,17.2 
			108.4,17.2 108.4,18.2 102.2,18.2 		"/>
		<path class="st1" d="M112.9,9.1h2.4c1.8,0,3.8,0.3,3.8,2.5c0,1.3-0.9,2.2-2.4,2.4l2.7,4.2H118l-2.6-4.1H114v4.1h-1.1V9.1z
			 M114,13.1h1c1.2,0,2.9,0,2.9-1.5c0-1.3-1.2-1.5-2.3-1.5H114V13.1z"/>
		<path class="st2" d="M112.9,9.1h2.4c1.8,0,3.8,0.3,3.8,2.5c0,1.3-0.9,2.2-2.4,2.4l2.7,4.2H118l-2.6-4.1H114v4.1h-1.1V9.1z
			 M114,13.1h1c1.2,0,2.9,0,2.9-1.5c0-1.3-1.2-1.5-2.3-1.5H114V13.1z"/>
		<path class="st1" d="M124.4,9.1h1.1l4,9.2h-1.3l-1-2.3h-4.7l-1,2.3h-1.3L124.4,9.1z M124.9,10.5L124.9,10.5l-2,4.5h3.9L124.9,10.5
			z"/>
		<path class="st2" d="M124.4,9.1h1.1l4,9.2h-1.3l-1-2.3h-4.7l-1,2.3h-1.3L124.4,9.1z M124.9,10.5L124.9,10.5l-2,4.5h3.9L124.9,10.5
			z"/>
		<polygon class="st1" points="135.5,10.1 132.4,10.1 132.4,18.2 131.3,18.2 131.3,10.1 128.1,10.1 128.1,9.1 135.5,9.1 		"/>
		<polygon class="st2" points="135.5,10.1 132.4,10.1 132.4,18.2 131.3,18.2 131.3,10.1 128.1,10.1 128.1,9.1 135.5,9.1 		"/>
		<polygon class="st1" points="139.8,9.1 141.3,9.1 146.8,16.7 146.8,16.7 146.8,9.1 147.9,9.1 147.9,18.2 146.5,18.2 141,10.6 
			141,10.6 141,18.2 139.8,18.2 		"/>
		<polygon class="st2" points="139.8,9.1 141.3,9.1 146.8,16.7 146.8,16.7 146.8,9.1 147.9,9.1 147.9,18.2 146.5,18.2 141,10.6 
			141,10.6 141,18.2 139.8,18.2 		"/>
		<path class="st1" d="M158,17.6c-1.1,0.6-2.3,0.9-3.6,0.9c-3,0-5.1-1.9-5.1-4.8c0-2.9,2.3-4.8,5.1-4.8c1.2,0,2.5,0.3,3.4,1.2
			l-0.8,0.9c-0.6-0.7-1.6-1.1-2.6-1.1c-2.2,0-3.8,1.6-3.8,3.8c0,2.2,1.6,3.8,3.9,3.8c0.8,0,1.7-0.2,2.4-0.5v-2.8h-2.2v-1h3.3V17.6z"
			/>
		<path class="st2" d="M158,17.6c-1.1,0.6-2.3,0.9-3.6,0.9c-3,0-5.1-1.9-5.1-4.8c0-2.9,2.3-4.8,5.1-4.8c1.2,0,2.5,0.3,3.4,1.2
			l-0.8,0.9c-0.6-0.7-1.6-1.1-2.6-1.1c-2.2,0-3.8,1.6-3.8,3.8c0,2.2,1.6,3.8,3.9,3.8c0.8,0,1.7-0.2,2.4-0.5v-2.8h-2.2v-1h3.3V17.6z"
			/>
		<path class="st1" d="M138.4,12.4l0,6h-1.3c0,0,0-3.8,0-5.5l-0.5-0.7c0-3.1,1.6-3.5,1.6-3.5l0.2,0C138.4,8.8,138.4,11.7,138.4,12.4
			L138.4,12.4z"/>
		<path class="st1" d="M83,8.8h-0.3V11h-0.2V8.8H82V11h-0.2V8.8h-0.4V11l-0.2,0V8.8h-0.3L80.8,11v0.2c0,0.4,0.2,0.7,0.5,0.9v6.3h1.3
			v-6.3c0.3-0.2,0.5-0.5,0.5-0.9V11L83,8.8z"/>
		<rect x="0" y="25" class="st1" width="168.2" height="1.3"/>
		<polygon class="st1" points="144.6,32.1 149.5,25.3 140,25.3 		"/>
		<path class="st1" d="M130.3,51.2c0-7.8,6.3-14.1,14.1-14.1c7.8,0,14.1,6.3,14.1,14.1s-6.3,14.1-14.1,14.1
			C136.6,65.3,130.3,59,130.3,51.2"/>
		<path class="st3" d="M139.4,41.7l10,0l0,3.1h-7.1l-0.3,3.6c0.7-0.3,1.4-0.5,2.8-0.5c3.5,0,6,3.2,6,6.5c0,3.4-2.7,6.6-6.6,6.6
			c-3.3,0-6.3-2.7-6.5-6l3.4,0c0.4,2.3,2,2.9,3.1,2.9c2.3,0,3.4-1.9,3.4-3.5c0-1.6-1.2-3.5-3.3-3.5c-1.2,0-1.9,0.4-2.7,1.1l-3,0
			L139.4,41.7z"/>
		<path class="st1" d="M114.8,53.6h-3.9V52l3.7-5.8h1.8v6h1.3v1.4h-1.3v1.9h-1.6V53.6z M114.8,48.4L114.8,48.4l-2.3,3.7h2.3
			L114.8,48.4z"/>
		<g>
			<defs>
				<rect id="SVGID_1_" x="108.9" y="42.9" width="13.8" height="12.8"/>
			</defs>
			<clipPath id="SVGID_2_">
				<use xlink:href="#SVGID_1_"  style="overflow:visible;"/>
			</clipPath>
			<path class="st4" d="M108.9,45.7c2.7-3.3,7.7-3.8,11-1c3.3,2.7,3.8,7.7,1,11"/>
		</g>
		<path class="st1" d="M114.7,43.3c4.1,0,7.5,3.4,7.5,7.5c0,4.1-3.4,7.5-7.5,7.5c-4.1,0-7.5-3.4-7.5-7.5
			C107.2,46.6,110.6,43.3,114.7,43.3 M114.7,42.1c-4.8,0-8.7,3.9-8.7,8.7c0,4.8,3.9,8.7,8.7,8.7c4.8,0,8.7-3.9,8.7-8.7
			C123.4,46,119.5,42.1,114.7,42.1"/>
		<path class="st1" d="M87.6,52.9h1.8c0,0.7,0.6,1.2,1.4,1.2c0.8,0,1.6-0.6,1.6-1.5c0-1.2-1.1-1.4-2.1-1.4h-0.4v-1.4h0.4
			c0.9,0,1.8-0.1,1.8-1.3c0-0.7-0.5-1.2-1.3-1.2c-0.8,0-1.2,0.4-1.2,1l-1.8,0c0-0.3,0.1-0.4,0.1-0.4c0.4-1.4,1.5-2,2.9-2
			c1.6,0,3,0.8,3,2.5c0,1-0.6,1.8-1.6,2.1v0c1.2,0.2,1.8,1.1,1.8,2.3c0,1.8-1.5,2.7-3.1,2.7c-1.5,0-2.9-0.7-3.2-2.2
			C87.6,53.2,87.6,52.9,87.6,52.9"/>
		<g>
			<defs>
				<rect id="SVGID_3_" x="84.6" y="43.2" width="13.8" height="12.9"/>
			</defs>
			<clipPath id="SVGID_4_">
				<use xlink:href="#SVGID_3_"  style="overflow:visible;"/>
			</clipPath>
			<path class="st5" d="M84.6,46.1c2.7-3.3,7.8-3.9,11.1-1.2c3.3,2.7,3.6,7.9,0.8,11.2"/>
		</g>
		<path class="st1" d="M90.8,43.3c4.1,0,7.5,3.4,7.5,7.5c0,4.1-3.4,7.5-7.5,7.5c-4.1,0-7.5-3.4-7.5-7.5
			C83.3,46.6,86.7,43.3,90.8,43.3 M90.8,42.1c-4.8,0-8.7,3.9-8.7,8.7c0,4.8,3.9,8.7,8.7,8.7c4.8,0,8.7-3.9,8.7-8.7
			C99.5,46,95.6,42.1,90.8,42.1"/>
		<path class="st1" d="M68.7,51.1c0.8-0.8,1.4-1.6,1.4-2.7c0-1.8-1.3-2.6-3-2.6c-1.7,0-2.9,0.9-3.1,2.6h0c0,0.1,0,0.1,0,0.1h1.7
			c0.1-0.8,0.7-1.3,1.4-1.3c0.7,0,1.3,0.5,1.3,1.2c0,0.6-0.5,1.2-1,1.6l-3.6,3.5v1.7h6.2v-1.4h-4.3L68.7,51.1z"/>
		<g>
			<defs>
				<rect id="SVGID_5_" x="61.1" y="43.2" width="13.8" height="12.8"/>
			</defs>
			<clipPath id="SVGID_6_">
				<use xlink:href="#SVGID_5_"  style="overflow:visible;"/>
			</clipPath>
			<path class="st6" d="M61.1,46c2.7-3.3,7.7-3.8,11-1c3.3,2.7,3.8,7.7,1,11"/>
		</g>
		<path class="st1" d="M67.1,43.4c4.1,0,7.5,3.4,7.5,7.5c0,4.1-3.4,7.5-7.5,7.5c-4.1,0-7.5-3.4-7.5-7.5
			C59.6,46.7,62.9,43.4,67.1,43.4 M67.1,42.2c-4.8,0-8.7,3.9-8.7,8.7c0,4.8,3.9,8.7,8.7,8.7c4.8,0,8.7-3.9,8.7-8.7
			C75.8,46.1,71.9,42.2,67.1,42.2"/>
		<polygon class="st1" points="42.6,48 40.9,49.5 40,48.4 42.8,46.1 44.2,46.1 44.2,55.4 42.6,55.4 		"/>
		<g>
			<defs>
				<rect id="SVGID_7_" x="37.3" y="42.9" width="13.8" height="12.8"/>
			</defs>
			<clipPath id="SVGID_8_">
				<use xlink:href="#SVGID_7_"  style="overflow:visible;"/>
			</clipPath>
			<path class="st7" d="M37.3,45.7c2.7-3.3,7.7-3.8,11-1c3.3,2.7,3.8,7.7,1,11"/>
		</g>
		<path class="st1" d="M43.2,43.3c4.1,0,7.5,3.4,7.5,7.5c0,4.1-3.4,7.5-7.5,7.5c-4.1,0-7.5-3.4-7.5-7.5C35.7,46.6,39,43.3,43.2,43.3
			 M43.2,42.1c-4.8,0-8.7,3.9-8.7,8.7c0,4.8,3.9,8.7,8.7,8.7c4.8,0,8.7-3.9,8.7-8.7C51.8,46,47.9,42.1,43.2,42.1"/>
		<path class="st1" d="M19.4,46c1,0,3.4,0.4,3.4,4.8c0,4.4-2.3,4.8-3.4,4.8c-1,0-3.4-0.4-3.4-4.8C16.1,46.4,18.4,46,19.4,46
			 M19.4,54.1c1.6,0,1.8-2.2,1.8-3.3c0-1.2-0.2-3.3-1.8-3.3c-1.6,0-1.8,2.2-1.8,3.3C17.6,51.9,17.9,54.1,19.4,54.1"/>
		<g>
			<defs>
				<rect id="SVGID_9_" x="13.6" y="42.9" width="13.8" height="12.8"/>
			</defs>
			<clipPath id="SVGID_10_">
				<use xlink:href="#SVGID_9_"  style="overflow:visible;"/>
			</clipPath>
			<path class="st8" d="M13.6,45.7c2.7-3.3,7.7-3.8,11-1c3.3,2.7,3.8,7.7,1,11"/>
		</g>
		<path class="st1" d="M19.5,43.3c4.1,0,7.5,3.4,7.5,7.5c0,4.1-3.4,7.5-7.5,7.5c-4.1,0-7.5-3.4-7.5-7.5C12,46.6,15.3,43.3,19.5,43.3
			 M19.5,42.1c-4.8,0-8.7,3.9-8.7,8.7c0,4.8,3.9,8.7,8.7,8.7c4.8,0,8.7-3.9,8.7-8.7C28.1,46,24.3,42.1,19.5,42.1"/>
	</g>
</g>
</svg>
